# xmcd
#
# Track frame offsets:
#	150
#	14862
#	28376
#	43167
#	55952
#	67214
#	83382
#	96442
#	109095
#	121671
#	135095
#	150325
#	160896
#	174000
#	186994
#	207062
#	221717
#	234611
#
# Disc length: 3281 seconds
#
# Revision: 1
# Processed by: cddbd v1.5.2PL0 Copyright (c) Steve Scherf et al.
# Submitted via: audiograbber 1.83.01
#
DISCID=f40ccf12
DTITLE=Various Artist - Jazz and Swing in der DDR 1947-1962  CD09
DYEAR=2018
DGENRE=Jazz
TTITLE0=Heinz Becker Quintett - Sweet Sue
TTITLE1=RBT-Orchester, Ltg.: Horst Kudritzki - Kleiner Boy aus Portorico 
TTITLE2=Rex Stewarts Hot Club Berlin Session - Muskrat Ramble
TTITLE3=Tanzkapelle des Berliner Rundfunks, Ltg.: Walter Dobschinski - Hallo Mr
TTITLE3=Be-Bop 
TTITLE4=RBT-Orchester, Ltg.: Horst Kudritzki - Ja, ich bin perfekt im Küssen 
TTITLE5=Rex Stewarts Hot Club Berlin Session - Linden Blues
TTITLE6=Tanzkapelle des Berliner Rundfunks. Ltg.: W. Dobschinski - Choo-Choo Bo
TTITLE6=ogie
TTITLE7=RBT-Orchester, Ltg.: Horst Kudritzki - Swing Promenade
TTITLE8=Rex Stewarts Hot Club Berlin Session - Bei Dir war es immer so schön 
TTITLE9=RBT-Orchester, Ltg.: Horst Kudritzki - Chattanooga Choo Choo
TTITLE10=Rex Stewarts Hot Club Berlin Session - Air Lift-Stomp(Amiga Stomp)
TTITLE11=Kurt Hohenberger and seine Solisten - C-Jam Blues
TTITLE12=RBT-Orchester, Ltg.: Horst Kudritzki - Air Mail Special
TTITLE13=Rex Stewarts Hot Club Berlin Session - Blue Lou
TTITLE14=RBT-Orchester, Ltg.: Horst Kudritzki - Night and Day
TTITLE15=Bruno Klennert-Quartett - Moonglow
TTITLE16=RBT-Orchester, Ltg.: Horst Kudritzki - Unisono
TTITLE17=Trio Harmonie - St. Louis Blues
EXTD=YEAR: 2018
EXTT0=
EXTT1=
EXTT2=
EXTT3=
EXTT4=
EXTT5=
EXTT6=
EXTT7=
EXTT8=
EXTT9=
EXTT10=
EXTT11=
EXTT12=
EXTT13=
EXTT14=
EXTT15=
EXTT16=
EXTT17=
PLAYORDER=
